<?xml version="1.0" encoding="UTF-8" standalone="no"?>
<!-- Created with Inkscape (http://www.inkscape.org/) -->

<svg
   version="1.1"
   id="svg1"
   width="854.19598"
   height="951.75067"
   viewBox="0 0 854.19598 951.75067"
   xmlns="http://www.w3.org/2000/svg"
   xmlns:svg="http://www.w3.org/2000/svg">
  <defs
     id="defs1" />
  <g
     id="g1"
     transform="translate(-372.90131,-129.99603)">
    <g
       id="group-R5">
      <path
         id="path168"
         d="M 1076.3266,435.52803 669.48398,662.08402 V 837.31869 L 1227.0973,517.67336 1076.3266,435.52803"
         style="fill:#0a62a3;fill-opacity:1;fill-rule:nonzero;stroke:none;stroke-width:0.133333" />
      <path
         id="path169"
         d="M 669.48398,997.23735 V 532.69736 l -147.42266,-81.412 v 630.46134 l 147.42266,-84.50935"
         style="fill:#0080d0;fill-opacity:1;fill-rule:nonzero;stroke:none;stroke-width:0.133333" />
      <path
         id="path170"
         d="M 372.90132,368.34403 786.12398,598.11736 919.23731,523.00536 372.90132,207.0467 v 161.29733"
         style="fill:#0080d0;fill-opacity:1;fill-rule:nonzero;stroke:none;stroke-width:0.133333" />
      <path
         id="path171"
         d="M 1227.0973,517.67336 V 677.59202 L 522.06132,1081.7467 V 921.83068 L 1227.0973,517.67336"
         style="fill:#0080d0;fill-opacity:1;fill-rule:nonzero;stroke:none;stroke-width:0.133333" />
      <path
         id="path172"
         d="m 522.06132,921.83068 -149.16,-81.41333 V 207.0467 l 149.16,86.26133 v 628.52265"
         style="fill:#0080d0;fill-opacity:1;fill-rule:nonzero;stroke:none;stroke-width:0.133333" />
      <path
         id="path173"
         d="m 1227.0973,517.67336 -159.2387,91.28266 -545.79728,-315.64799 147.42266,-79.308 557.61332,303.67333"
         style="fill:#0a62a3;fill-opacity:1;fill-rule:nonzero;stroke:none;stroke-width:0.133333" />
      <path
         id="path174"
         d="m 372.90132,840.41735 v 159.91735 l 149.16,81.412 V 921.83068 l -149.16,-81.41333"
         style="fill:#0080d0;fill-opacity:1;fill-rule:nonzero;stroke:none;stroke-width:0.133333" />
      <path
         id="path175"
         d="m 515.55865,129.99604 -142.65733,77.05066 149.16,86.26133 147.42266,-79.308 -153.92533,-84.00399"
         style="fill:#0a62a3;fill-opacity:1;fill-rule:nonzero;stroke:none;stroke-width:0.133333" />
      <path
         id="path176"
         d="m 1080.6293,761.88002 -12.7707,-152.924 159.2387,-91.28266 v 159.91866 l -146.468,84.288"
         style="fill:#0080d0;fill-opacity:1;fill-rule:nonzero;stroke:none;stroke-width:0.133333" />
      <path
         id="path373"
         d="m 522.06132,921.83068 -149.16,-81.41333 V 207.0467 l 149.16,86.26133 v 628.52265"
         style="fill:#0080d0;fill-opacity:1;fill-rule:nonzero;stroke:none;stroke-width:0.133333" />
      <path
         id="path374"
         d="m 372.90132,840.41735 v 159.91735 l 149.16,81.412 V 921.83068 l -149.16,-81.41333"
         style="fill:#0080d0;fill-opacity:1;fill-rule:nonzero;stroke:none;stroke-width:0.133333" />
      <path
         id="path375"
         d="m 522.06132,921.83068 -149.16,-81.41333 V 207.0467 l 149.16,86.26133 v 628.52265"
         style="fill:#0080d0;fill-opacity:1;fill-rule:nonzero;stroke:none;stroke-width:0.133333" />
      <path
         id="path376"
         d="m 372.90132,840.41735 v 159.91735 l 149.16,81.412 V 921.83068 l -149.16,-81.41333"
         style="fill:#0a62a3;fill-opacity:1;fill-rule:nonzero;stroke:none;stroke-width:0.133333" />
      <path
         id="path377"
         d="m 1227.0973,517.67336 -159.2387,91.28266 -545.79728,-315.64799 147.42266,-79.308 557.61332,303.67333"
         style="fill:#0a62a3;fill-opacity:1;fill-rule:nonzero;stroke:none;stroke-width:0.133333" />
      <path
         id="path378"
         d="m 515.55865,129.99604 -142.65733,77.05066 149.16,86.26133 147.42266,-79.308 -153.92533,-84.00399"
         style="fill:#0a62a3;fill-opacity:1;fill-rule:nonzero;stroke:none;stroke-width:0.133333" />
      <path
         id="path379"
         d="M 372.90132,368.34403 786.12398,598.11736 919.23731,523.00536 372.90132,207.0467 v 161.29733"
         style="fill:#0080d0;fill-opacity:1;fill-rule:nonzero;stroke:none;stroke-width:0.133333" />
      <path
         id="path380"
         d="m 522.06132,921.83068 -149.16,-81.41333 V 207.0467 l 149.16,86.26133 v 628.52265"
         style="fill:#0a62a3;fill-opacity:1;fill-rule:nonzero;stroke:none;stroke-width:0.133333" />
      <path
         id="path381"
         d="M 669.48398,997.23735 V 532.69736 l -147.42266,-81.412 v 630.46134 l 147.42266,-84.50935"
         style="fill:#0080d0;fill-opacity:1;fill-rule:nonzero;stroke:none;stroke-width:0.133333" />
      <path
         id="path382"
         d="M 1227.0973,517.67336 V 677.59202 L 522.06132,1081.7467 V 921.83068 L 1227.0973,517.67336"
         style="fill:#0080d0;fill-opacity:1;fill-rule:nonzero;stroke:none;stroke-width:0.133333" />
      <path
         id="path383"
         d="m 515.55865,129.99604 -142.65733,77.05066 149.16,86.26133 147.42266,-79.308 -153.92533,-84.00399"
         style="fill:#0a62a3;fill-opacity:1;fill-rule:nonzero;stroke:none;stroke-width:0.133333" />
      <path
         id="path384"
         d="m 522.06132,921.83068 -149.16,-81.41333 V 207.0467 l 149.16,86.26133 v 628.52265"
         style="fill:#0a62a3;fill-opacity:1;fill-rule:nonzero;stroke:none;stroke-width:0.133333" />
      <path
         id="path385"
         d="m 1227.0973,517.67336 -159.2387,91.28266 -545.79728,-315.64799 147.42266,-79.308 557.61332,303.67333"
         style="fill:#0a62a3;fill-opacity:1;fill-rule:nonzero;stroke:none;stroke-width:0.133333" />
      <path
         id="path386"
         d="m 515.55865,129.99604 -142.65733,77.05066 149.16,86.26133 147.42266,-79.308 -153.92533,-84.00399"
         style="fill:#0a62a3;fill-opacity:1;fill-rule:nonzero;stroke:none;stroke-width:0.133333" />
      <path
         id="path387"
         d="m 522.06132,921.83068 -149.16,-81.41333 V 207.0467 l 149.16,86.26133 v 628.52265"
         style="fill:#0a62a3;fill-opacity:1;fill-rule:nonzero;stroke:none;stroke-width:0.133333" />
    </g>
  </g>
</svg>
